<svg width="26" height="26" viewBox="0 0 26 26" fill="none" xmlns="http://www.w3.org/2000/svg">
    <path fill="#fff" d="M.66.863h25v25h-25z"/>
    <path d="M13.357 5.863a.312.312 0 0 0-.312.313v1.25a.312.312 0 1 0 .625 0v-1.25a.312.312 0 0 0-.313-.313zM8.938 7.694a.31.31 0 0 0-.22.093.31.31 0 0 0 0 .44l.885.883a.31.31 0 0 0 .439 0 .31.31 0 0 0 0-.44l-.884-.883a.31.31 0 0 0-.22-.093zm8.838 0a.31.31 0 0 0-.22.093l-.883.884a.31.31 0 0 0 0 .44.31.31 0 0 0 .44 0l.883-.884a.31.31 0 0 0 0-.44.31.31 0 0 0-.22-.093zm-4.419.982c-1.905 0-3.75 1.478-3.75 3.57 0 2.558 1.806 3.208 2.012 4.867h3.477c.206-1.659 2.011-2.31 2.011-4.868 0-2.09-1.844-3.57-3.75-3.57zm-.346.8c.203-.01.376.094.37.298a.325.325 0 0 1-.302.323 2.339 2.339 0 0 0-2.065 2.329c0 .24.035.47.102.688a.325.325 0 0 1-.2.415.324.324 0 0 1-.396-.234 2.943 2.943 0 0 1-.131-.87 2.974 2.974 0 0 1 2.622-2.948zm-5.904 2.637a.312.312 0 1 0 0 .625h1.25a.312.312 0 1 0 0-.625h-1.25zm11.25 0a.312.312 0 1 0 0 .625h1.25a.312.312 0 1 0 0-.625h-1.25zm-6.718 5.625v.625h3.437v-.625H11.64zm0 1.25v.313c0 .359.295.625.625.625h2.187c.33 0 .625-.266.625-.625v-.313H11.64zm1.093 1.25c0 .346.28.625.625.625a.624.624 0 0 0 .625-.625h-1.25z" fill="#B7C2D2"/>
</svg>
