<svg width="26" height="26" viewBox="0 0 26 26" fill="none" xmlns="http://www.w3.org/2000/svg">
    <path fill="#fff" d="M.66.863h25v25h-25z"/>
    <path fill-rule="evenodd" clip-rule="evenodd" d="M16.8 9.098c-1.722-2.233-3.323-3.141-3.39-3.179a.439.439 0 0 0-.493.044.446.446 0 0 0-.144.476c1.026 3.381.368 5.406-.59 6.173-.474.38-1.034.464-1.459.216-.88-.513-.455-2.006-.452-2.02a.446.446 0 0 0-.173-.496.438.438 0 0 0-.522.017c-1.104.87-2.303 2.82-2.048 5.452.285 2.945 2.668 5.082 5.666 5.082 3.095 0 5.515-2.431 5.627-5.655.075-2.122-.662-4.349-2.021-6.11z" fill="#B7C2D2"/>
</svg>
