<svg width="26" height="26" viewBox="0 0 26 26" fill="none" xmlns="http://www.w3.org/2000/svg">
    <path fill="#fff" d="M.66.863h25v25h-25z"/>
    <path d="M20.2 11.847a.2.2 0 1 0 .233-.327 1.813 1.813 0 0 0-1.066-.36c-.376 0-.748.126-1.104.358-.775.506-1.239.248-1.702-.01-.57-.317-1.138-.634-2.116.004-.285.185-.567.286-.846.29-.276.003-.556-.09-.84-.29a.2.2 0 1 0-.232.327c.356.252.715.368 1.077.364.359-.005.712-.128 1.06-.355.775-.506 1.239-.248 1.702.01.57.317 1.139.634 2.116-.003.292-.19.59-.294.885-.295.278 0 .558.09.834.287zM20.2 16.788a.2.2 0 1 0 .233-.327 1.814 1.814 0 0 0-1.066-.36c-.376 0-.748.127-1.104.359-.775.505-1.239.247-1.702-.01-.57-.318-1.138-.635-2.116.003-.285.186-.567.287-.846.29-.276.004-.556-.089-.84-.29a.2.2 0 1 0-.232.327c.356.253.715.369 1.077.364.359-.004.712-.128 1.06-.354.775-.506 1.239-.248 1.702.01.57.317 1.139.634 2.116-.004.292-.19.59-.294.885-.294.278 0 .558.09.834.286zM20.694 13.127a.2.2 0 0 0-.233-.327.747.747 0 0 1-.444.155.856.856 0 0 1-.453-.157c-.616-.402-.973-.204-1.329-.005-.25.139-.501.279-.915.009a1.244 1.244 0 0 0-.667-.222c-.23-.003-.458.07-.682.229a.2.2 0 0 0 .233.327.746.746 0 0 1 .444-.155.856.856 0 0 1 .453.157c.616.402.973.204 1.329.005.25-.14.501-.279.915-.009.217.142.44.22.667.222.23.003.457-.07.682-.23zM20.2 15.125a.2.2 0 1 0 .233-.327.664.664 0 0 0-.398-.132.716.716 0 0 0-.386.126c-.155.101-.253.047-.35-.008-.204-.113-.408-.227-.765.006a.329.329 0 0 1-.172.062.274.274 0 0 1-.161-.059.2.2 0 1 0-.233.328c.13.092.263.134.399.132a.717.717 0 0 0 .385-.126c.155-.101.253-.047.351.008.204.113.408.226.765-.006a.328.328 0 0 1 .171-.062c.05 0 .104.018.162.058z" fill="#B7C2D2"/>
    <path fill-rule="evenodd" clip-rule="evenodd" d="M10.74 5.719c1.84 1.97 3.133 3.747 3.988 5.33a3.107 3.107 0 0 0-.43.238c-.208.136-.45.243-.702.246-.251.004-.48-.097-.68-.24a.47.47 0 0 0-.545.765c.368.26.782.42 1.236.413.437-.005.84-.162 1.203-.398.117-.076.229-.137.341-.18.716 1.549.994 2.894.949 4.035-.648-.233-1.214-.082-1.802.301-.208.136-.45.244-.702.247-.251.003-.48-.097-.68-.24a.47.47 0 0 0-.545.764c.368.261.782.42 1.236.414.437-.006.84-.162 1.203-.399.35-.228.665-.326 1.062-.164.035.014.069.03.103.046-1.694 7.58-19.314 3.9-5.236-11.178zm4.906 9.369a.2.2 0 0 0-.233-.328.747.747 0 0 1-.444.156.856.856 0 0 1-.453-.158c-.616-.401-.973-.203-1.329-.005-.25.14-.501.28-.915.01a1.244 1.244 0 0 0-.667-.222c-.23-.003-.458.07-.682.229a.2.2 0 0 0 .233.327.746.746 0 0 1 .444-.155.856.856 0 0 1 .453.157c.616.402.973.203 1.329.005.25-.14.501-.279.915-.009.217.142.44.219.667.222.23.003.458-.07.682-.23zm-.278-1.284a.2.2 0 0 0-.232-.327.746.746 0 0 1-.445.155.856.856 0 0 1-.453-.157c-.616-.402-.972-.204-1.329-.005-.25.139-.5.278-.915.009a1.245 1.245 0 0 0-.667-.222c-.23-.003-.457.07-.681.229a.2.2 0 0 0 .232.327.747.747 0 0 1 .445-.155.857.857 0 0 1 .453.157c.616.402.972.204 1.328.005.251-.14.501-.279.916-.009.217.142.439.219.666.222.23.003.458-.07.682-.23z" fill="#B7C2D2"/>
</svg>
