<svg width="26" height="26" viewBox="0 0 26 26" fill="none" xmlns="http://www.w3.org/2000/svg">
    <path fill="#fff" d="M.66.863h25v25h-25z"/>
    <path fill-rule="evenodd" clip-rule="evenodd" d="M13.7 7.453v6.9c1.26.66 1.98 2.04 1.86 3.48a3.44 3.44 0 0 1-3 3c-.15.03-.27.03-.42.03-.87 0-1.68-.3-2.31-.87a3.419 3.419 0 0 1-1.17-2.58c0-1.29.72-2.49 1.86-3.06v-6.9c0-.87.72-1.59 1.59-1.59.87 0 1.59.72 1.59 1.59zm-3.42 9.96c0 1.02.81 1.83 1.83 1.83.99 0 1.8-.81 1.83-1.83 0-.9-.66-1.65-1.53-1.8v-7.77c0-.18-.12-.3-.3-.3s-.3.12-.3.3v7.77c-.87.15-1.53.9-1.53 1.8zm6.15-7.979h-1.29a.3.3 0 0 1-.3-.3c0-.18.12-.3.3-.3h1.29c.18 0 .3.12.3.3s-.12.3-.3.3zm.93.629h-1.68c-.18 0-.3.12-.3.3s.12.3.3.3h1.68c.18 0 .3-.12.3-.3s-.12-.3-.3-.3zm-2.22 1.23h1.29c.18 0 .3.12.3.3s-.12.3-.3.3h-1.29c-.18 0-.3-.12-.3-.3s.12-.3.3-.3z" fill="#B7C2D2"/>
</svg>
