<svg width="26" height="26" viewBox="0 0 26 26" fill="none" xmlns="http://www.w3.org/2000/svg">
    <path fill="#fff" d="M.66.863h25v25h-25z"/>
    <path fill-rule="evenodd" clip-rule="evenodd" d="M17.11 12.566V9.7h1.585l1.855 2.179v.686h-3.44zm-9.171 3.33c.596 0 1.077.48 1.077 1.077s-.48 1.077-1.077 1.077-1.078-.48-1.078-1.077c0-.596.481-1.077 1.078-1.077zm9.075 1.077c0-.597.481-1.077 1.078-1.077.596 0 1.077.48 1.077 1.077s-.48 1.077-1.077 1.077-1.078-.48-1.078-1.077zm4.474.469v-5.9l-2.366-2.779h-4.82v4.882h-.947L7.99 7.738H6.84v2.027h-.256v.974h.266v.39c0 .127.104.23.232.23a.261.261 0 0 1 .183.079.268.268 0 0 1-.191.456c-.132 0-.254-.089-.266-.226l-.458.04c.033.377.35.649.726.646a.728.728 0 0 0 .236-1.416v-.199h.246v-.974h-.255v-1.44l4.198 5.32H4.832v3.797h1.146a2.014 2.014 0 0 0 1.96 1.546c.953 0 1.75-.658 1.961-1.546h6.232a2.014 2.014 0 0 0 1.96 1.546c.953 0 1.75-.658 1.961-1.546h1.436z" fill="#B7C2D2"/>
</svg>
