<svg width="26" height="26" viewBox="0 0 26 26" fill="none" xmlns="http://www.w3.org/2000/svg">
    <path fill="#fff" d="M.66.863h25v25h-25z"/>
    <path d="M8.064 19.587a.378.378 0 0 0 .193-.053c1.34-.795 3.241-1.251 5.215-1.251 1.973 0 3.874.456 5.215 1.25.159.094.36.06.48-.079a7.503 7.503 0 0 0 1.805-4.878c0-4.135-3.365-7.5-7.5-7.5s-7.5 3.365-7.5 7.5c0 1.788.64 3.52 1.805 4.878.074.087.18.133.287.133zm1.54-2.293-.862.501a.376.376 0 0 1-.516-.136.378.378 0 0 1 .136-.517l.862-.5a.378.378 0 1 1 .38.652zm9.25.336a.378.378 0 0 1-.517.14l-.864-.496a.378.378 0 1 1 .376-.656l.864.496a.378.378 0 0 1 .14.516zm.694-3.054c0 .209-.17.378-.378.378h-.998a.378.378 0 0 1 0-.756h.998c.208 0 .377.17.377.378zm-2.194-2.658.863-.5a.378.378 0 0 1 .38.652l-.863.502a.377.377 0 0 1-.517-.137.378.378 0 0 1 .137-.517zm-1.853-1.56.495-.867a.378.378 0 0 1 .656.375l-.494.867a.378.378 0 0 1-.657-.375zm-2.407-1.48a.378.378 0 0 1 .756 0v.998a.378.378 0 0 1-.756 0v-.998zm-.556 4.92c.434-.388 3.637-1.916 3.773-1.981a.14.14 0 0 1 .179.2c-.08.128-1.959 3.138-2.393 3.526a1.167 1.167 0 0 1-1.652-.094 1.17 1.17 0 0 1 .093-1.651zm-2.016-4.43a.378.378 0 0 1 .516.137l.5.864a.378.378 0 1 1-.655.378l-.5-.864a.378.378 0 0 1 .139-.516zm-2.21 2.215a.378.378 0 0 1 .516-.14l.866.497a.378.378 0 1 1-.377.656l-.865-.497a.378.378 0 0 1-.14-.516zm-.917 2.993c0-.208.17-.378.378-.378h.997a.378.378 0 0 1 0 .756h-.997a.378.378 0 0 1-.378-.378z" fill="#B7C2D2"/>
</svg>
