<svg width="31" height="27" viewBox="0 0 31 27" fill="none" xmlns="http://www.w3.org/2000/svg">
    <rect x=".66" y=".289" width="30" height="26" rx="2" fill="#FFF1F1"/>
    <g clip-path="url(#yqpzubr66a)">
        <path d="M24.52 8.455c-1.038-.29-2.14-.27-3.106.057l-.04.013-2.888 1.373-8.43-3.35a2.117 2.117 0 0 0-2.208.392L6.72 7.952a1.065 1.065 0 0 0 .095 1.662l5.225 3.703-2.004 1.05-1.588-1.45a2.132 2.132 0 0 0-2.283-.382l-.863.374a1.065 1.065 0 0 0-.517 1.477l3.231 6.071 17.596-8.673c1.054-.496 1.182-1.289.95-1.866-.257-.64-1.001-1.173-2.042-1.463zm.484 2.046-.007.004-16.374 8.07-2.404-4.517.51-.22a.71.71 0 0 1 .762.126l2.322 2.122 4.94-2.587-6.755-4.787.798-.714a.706.706 0 0 1 .736-.131l9.004 3.58 3.37-1.602c.686-.222 1.503-.23 2.248-.019.614.174.94.426 1.05.559-.062.046-.13.085-.2.117z" fill="#FF6E6E"/>
    </g>
    <defs>
        <clipPath id="yqpzubr66a">
            <path fill="#fff" transform="translate(4.66 2.29)" d="M0 0h22v22H0z"/>
        </clipPath>
    </defs>
</svg>
