<svg width="19" height="19" viewBox="0 0 19 19" fill="none" xmlns="http://www.w3.org/2000/svg">
    <g clip-path="url(#stkepkzxda)" stroke-width="1.5" stroke-linejoin="round">
        <path d="m2.697 7.613 6.75-5.25 6.75 5.25v8.25a1.5 1.5 0 0 1-1.5 1.5h-10.5a1.5 1.5 0 0 1-1.5-1.5v-8.25z" stroke="#006E74" stroke-linecap="round"/>
        <path d="m2.697 7.613 6.75-5.25 6.75 5.25v8.25a1.5 1.5 0 0 1-1.5 1.5h-10.5a1.5 1.5 0 0 1-1.5-1.5v-8.25z" fill="#006E74" stroke="#006E74" stroke-linecap="round"/>
        <path d="M7.197 17.363v-7.5h4.5v7.5" stroke="#fff" stroke-linecap="square"/>
    </g>
    <defs>
        <clipPath id="stkepkzxda">
            <path fill="#fff" transform="translate(.447 .863)" d="M0 0h18v18H0z"/>
        </clipPath>
    </defs>
</svg>
