<svg width="31" height="27" viewBox="0 0 31 27" fill="none" xmlns="http://www.w3.org/2000/svg">
    <rect x=".66" y=".289" width="30" height="26" rx="2" fill="#EEFBFE"/>
    <path fill-rule="evenodd" clip-rule="evenodd" d="M14.41 7.524a5.901 5.901 0 0 0-4.622 5.214h2.769c.136-1.878.78-3.68 1.854-5.214zm1.252-1.233h-.001a6.997 6.997 0 1 0-.003 13.995 6.997 6.997 0 0 0 .004-13.995zm1.249 1.233a10.415 10.415 0 0 1 1.853 5.214h2.768a5.901 5.901 0 0 0-4.621-5.214zm.75 5.214a9.315 9.315 0 0 0-2-5.05 9.315 9.315 0 0 0-2 5.05h4zm-4 1.1h4a9.314 9.314 0 0 1-2 5.051 9.315 9.315 0 0 1-2-5.05zm-1.104 0H9.788a5.901 5.901 0 0 0 4.623 5.215 10.414 10.414 0 0 1-1.854-5.215zm4.354 5.215a10.415 10.415 0 0 0 1.853-5.215h2.768a5.901 5.901 0 0 1-4.621 5.215z" fill="#36C8EA"/>
</svg>
