<svg width="35" height="35" viewBox="0 0 35 35" fill="none" xmlns="http://www.w3.org/2000/svg">
    <mask id="6ap28fl2ma" maskUnits="userSpaceOnUse" x="2.555" y="2.863" width="30" height="30" fill="#000">
        <path fill="#fff" d="M2.555 2.863h30v30h-30z"/>
        <path fill-rule="evenodd" clip-rule="evenodd" d="M28.445 10.207a13.035 13.035 0 0 0-10.616-5.442c-4.062 0-7.82 1.835-10.311 5.034a.45.45 0 1 1-.712-.554 13.879 13.879 0 0 1 11.022-5.382c4.505 0 8.695 2.148 11.316 5.773l-.007-.968a.45.45 0 0 1 .447-.455h.004c.247 0 .449.2.45.447l.017 1.995a.45.45 0 0 1-.451.454H27.46a.451.451 0 0 1 0-.902h.984zM22.26 29.95l.506-.782a.451.451 0 1 0-.757-.49l-1.086 1.676a.45.45 0 0 0 .195.657l1.83.813a.452.452 0 0 0 .367-.824l-.589-.26c5.439-2.024 9.04-7.152 9.04-12.998 0-1.716-.312-3.391-.925-4.979a.452.452 0 0 0-.84.326c.572 1.482.862 3.048.862 4.653 0 5.52-3.433 10.355-8.603 12.208zm-4.432 1.67c-7.687 0-13.94-6.225-13.94-13.879 0-1.394.543-3.048 1.064-4.44l-.744.376a.451.451 0 0 1-.407-.805l1.787-.902a.454.454 0 0 1 .366-.02.45.45 0 0 1 .256.254l.842 1.878a.45.45 0 0 1-.412.636.45.45 0 0 1-.411-.267l-.406-.905c-.503 1.338-1.032 2.926-1.032 4.196 0 7.154 5.848 12.976 13.037 12.976.18 0 .361-.004.54-.011a.451.451 0 0 1 .037.901c-.192.008-.384.012-.577.012z"/>
    </mask>
    <path fill-rule="evenodd" clip-rule="evenodd" d="M28.445 10.207a13.035 13.035 0 0 0-10.616-5.442c-4.062 0-7.82 1.835-10.311 5.034a.45.45 0 1 1-.712-.554 13.879 13.879 0 0 1 11.022-5.382c4.505 0 8.695 2.148 11.316 5.773l-.007-.968a.45.45 0 0 1 .447-.455h.004c.247 0 .449.2.45.447l.017 1.995a.45.45 0 0 1-.451.454H27.46a.451.451 0 0 1 0-.902h.984zM22.26 29.95l.506-.782a.451.451 0 1 0-.757-.49l-1.086 1.676a.45.45 0 0 0 .195.657l1.83.813a.452.452 0 0 0 .367-.824l-.589-.26c5.439-2.024 9.04-7.152 9.04-12.998 0-1.716-.312-3.391-.925-4.979a.452.452 0 0 0-.84.326c.572 1.482.862 3.048.862 4.653 0 5.52-3.433 10.355-8.603 12.208zm-4.432 1.67c-7.687 0-13.94-6.225-13.94-13.879 0-1.394.543-3.048 1.064-4.44l-.744.376a.451.451 0 0 1-.407-.805l1.787-.902a.454.454 0 0 1 .366-.02.45.45 0 0 1 .256.254l.842 1.878a.45.45 0 0 1-.412.636.45.45 0 0 1-.411-.267l-.406-.905c-.503 1.338-1.032 2.926-1.032 4.196 0 7.154 5.848 12.976 13.037 12.976.18 0 .361-.004.54-.011a.451.451 0 0 1 .037.901c-.192.008-.384.012-.577.012z" fill="#959FB3"/>
    <path d="M28.445 10.207v.2h.39l-.228-.316-.162.116zM7.518 9.8l-.158-.123.158.123zm-.633.079.123-.158-.123.158zm-.079-.633-.158-.123.158.123zm22.338.391-.162.118.367.507-.005-.626-.2.001zm-.007-.968-.2.001.2-.001zm.447-.455v-.2h-.001l.001.2zm.455.447-.2.002.2-.002zm.016 1.995.2-.002-.2.002zm-.13.32.14.142-.14-.141zm-.322.134v-.2h-.1l-.06.08.16.12zm0 0v.2h.1l.06-.08-.16-.12zm-6.836 18.058.168.109-.168-.109zm-.506.782-.168-.11-.322.497.557-.2-.067-.187zm.372-1.406.109-.168-.109.168zm-.623.134-.168-.11.168.11zm-1.086 1.676.168.109-.168-.11zm-.054.373.192-.056-.192.056zm.25.284-.082.182.081-.182zm1.828.813.082-.182-.082.183zm.183.04.163-.116-.06-.084h-.103v.2zm0 0-.163.115.06.085h.103v-.2zm.413-.268.183.082-.183-.082zM23.315 31l.082-.183-.082.183zm-.588-.262-.07-.187-.459.17.448.2.081-.183zm8.115-17.976-.186.072.186-.072zm-.583-.257-.071-.187.071.187zm-.258.583.187-.072-.187.072zM17.83 31.618l.059-.19-.03-.01h-.03v.2zM4.953 13.3l.187.07.18-.48-.457.232.09.178zm-.744.376-.09-.178.09.178zm-.606-.199-.178.09.178-.09zm.2-.606-.091-.179.09.179zm1.786-.902-.09-.18v.001l.09.179zm.204-.05v.2-.2zm.162.03.072-.186h-.001l-.071.187zm.256.254-.186.074.004.008.182-.082zm.842 1.878-.183.082.183-.082zm-.228.596-.081-.183.081.183zm-.184.04v-.2l-.018.399.018-.2zm0 0v.2l.019-.4-.019.2zm-.411-.267.182-.082-.182.082zm-.406-.905.183-.081-.199-.444-.17.455.186.07zm12.545 17.16-.003-.2h-.005l.008.2zm.47.433.199-.008-.2.008zm-.433.469-.008-.2.008.2zm-.577.012-.06.19.03.01h.03v-.2zm0-26.654c4.167 0 8.04 1.995 10.453 5.359l.325-.233A13.235 13.235 0 0 0 17.83 4.565v.4zM7.676 9.922a12.782 12.782 0 0 1 10.153-4.957v-.4c-4.123 0-7.94 1.863-10.469 5.111l.316.246zm-.914.114a.65.65 0 0 0 .914-.114l-.316-.246a.25.25 0 0 1-.352.044l-.246.316zm-.114-.914a.65.65 0 0 0 .114.914l.246-.316a.25.25 0 0 1-.044-.352l-.316-.246zm11.18-5.459c-4.403 0-8.478 1.99-11.18 5.46l.316.245a13.679 13.679 0 0 1 10.864-5.305v-.4zM29.306 9.52a14.134 14.134 0 0 0-11.478-5.856v.4c4.441 0 8.571 2.118 11.154 5.69l.324-.234zm-.37-.85.008.969.4-.003-.007-.969-.4.003zm.647-.656a.65.65 0 0 0-.646.656l.4-.003a.25.25 0 0 1 .249-.253l-.003-.4zm.005 0h-.004v.4h.004v-.4zm.65.646a.65.65 0 0 0-.65-.646v.4a.25.25 0 0 1 .25.249l.4-.003zm.017 1.994-.016-1.994-.4.003.016 1.994.4-.003zm-.19.464a.65.65 0 0 0 .19-.464l-.4.003a.25.25 0 0 1-.072.178l.283.283zm-.462.192c.175 0 .34-.07.463-.192l-.283-.283a.253.253 0 0 1-.18.075v.4zm.16-.08-.32-.24.32.24zm-2.302.08h2.143v-.4H27.46v.4zm-.651-.65c0 .358.292.65.65.65v-.4a.251.251 0 0 1-.25-.25h-.4zm.65-.652a.651.651 0 0 0-.65.651h.4c0-.138.112-.25.25-.25v-.4zm.985 0h-.984v.4h.984v-.4zm-5.846 19.051-.506.782.336.217.506-.781-.336-.218zm-.074-.347c.116.075.15.23.074.347l.336.218a.651.651 0 0 0-.193-.9l-.217.335zm-.348.075a.25.25 0 0 1 .348-.075l.217-.336a.651.651 0 0 0-.9.193l.335.217zm-1.085 1.675 1.085-1.676-.335-.217-1.086 1.676.336.217zm-.03.208a.25.25 0 0 1 .03-.207l-.336-.218a.65.65 0 0 0-.078.539l.384-.114zm.139.158a.25.25 0 0 1-.139-.157l-.384.113a.651.651 0 0 0 .36.41l.163-.366zm1.829.814-1.83-.814-.162.366 1.829.813.163-.365zm.101.022a.247.247 0 0 1-.101-.022l-.163.365a.646.646 0 0 0 .264.057v-.4zm.163.084-.326.231.326-.23zm.067-.233a.252.252 0 0 1-.23.149v.4a.652.652 0 0 0 .596-.386l-.366-.163zm-.127-.332a.252.252 0 0 1 .127.332l.366.162a.652.652 0 0 0-.33-.859l-.163.365zm-.588-.261.588.262.163-.366-.588-.262-.163.366zm8.92-13.18c0 5.762-3.548 10.815-8.909 12.81l.14.375c5.517-2.053 9.17-7.254 9.17-13.185h-.4zm-.91-4.906c.604 1.564.91 3.214.91 4.906h.4c0-1.74-.315-3.44-.937-5.05l-.373.144zm-.325-.144c.13-.05.276.016.325.143l.373-.143a.652.652 0 0 0-.841-.373l.143.373zm-.143.325a.25.25 0 0 1 .143-.325l-.144-.373a.65.65 0 0 0-.372.842l.373-.144zm.876 4.725c0-1.63-.295-3.22-.876-4.725l-.373.144c.563 1.46.85 3 .85 4.581h.4zm-8.736 12.396c5.25-1.88 8.736-6.79 8.736-12.396h-.4c0 5.435-3.38 10.195-8.47 12.02l.134.376zM3.69 17.74c0 7.765 6.343 14.079 14.139 14.079v-.4c-7.577 0-13.74-6.137-13.74-13.679h-.4zm1.075-4.51c-.52 1.39-1.075 3.075-1.075 4.51h.4c0-1.353.528-2.976 1.05-4.37l-.375-.14zm.098-.108-.744.376.18.357.744-.376-.18-.357zm-.744.376a.252.252 0 0 1-.337-.111l-.357.18c.162.32.553.45.875.288l-.18-.357zm-.337-.111a.252.252 0 0 1 .11-.338l-.18-.356a.652.652 0 0 0-.287.874l.357-.18zm.11-.338 1.787-.902-.18-.357-1.787.902.18.357zm1.786-.902a.254.254 0 0 1 .115-.027v-.4a.656.656 0 0 0-.294.07l.18.357zm.348-.385a.654.654 0 0 0-.233-.042v.4c.03 0 .061.005.09.017l.143-.375zm.37.367a.65.65 0 0 0-.37-.366l-.143.373a.25.25 0 0 1 .142.141l.372-.148zm-.367.156.841 1.878.365-.164-.841-1.878-.365.164zm.841 1.878a.25.25 0 0 1-.126.331l.163.366a.65.65 0 0 0 .328-.86l-.365.163zm-.127.332a.246.246 0 0 1-.102.022v.4c.09 0 .18-.019.266-.058l-.164-.364zm-.12.42.037-.397-.037.398zm.018-.398a.25.25 0 0 1-.229-.149l-.365.163a.65.65 0 0 0 .594.386v-.4zm-.229-.15-.405-.903-.365.163.405.904.365-.163zm-1.42 3.373c0-1.227.515-2.782 1.02-4.124l-.375-.141c-.502 1.334-1.045 2.955-1.045 4.266h.4zm12.837 12.777c-7.08 0-12.837-5.733-12.837-12.776h-.4c0 7.266 5.938 13.176 13.237 13.176v-.4zm.532-.011c-.176.007-.354.01-.532.01v.4c.183 0 .366-.003.548-.01l-.016-.4zm.677.624a.651.651 0 0 0-.672-.624l.006.4c.152-.002.26.105.266.24l.4-.016zm-.624.677a.651.651 0 0 0 .624-.677l-.4.016a.251.251 0 0 1-.24.261l.016.4zm-.585.012c.195 0 .39-.004.585-.012l-.016-.4c-.19.008-.379.012-.569.012v.4zm-.06-.01.119-.381-.118.382z" fill="#959FB3" mask="url(#6ap28fl2ma)"/>
    <path d="M25.293 21.018v-6.375a1.594 1.594 0 0 0-.797-1.379l-5.578-3.187a1.594 1.594 0 0 0-1.594 0l-5.578 3.187a1.594 1.594 0 0 0-.797 1.379v6.375a1.594 1.594 0 0 0 .797 1.379l5.578 3.187a1.594 1.594 0 0 0 1.594 0l5.578-3.187a1.594 1.594 0 0 0 .797-1.379z" stroke="#959FB3" stroke-width="1.5" stroke-linecap="round" stroke-linejoin="round"/>
    <path d="m14.795 11.523 6.973 4.27" stroke="#959FB3" stroke-width="1.5"/>
    <path d="m11.165 13.813 6.957 4.024 6.957-4.024M18.121 25.863V17.83" stroke="#959FB3" stroke-width="1.5" stroke-linecap="round" stroke-linejoin="round"/>
</svg>
