<svg width="144" height="21" viewBox="0 0 144 21" fill="none" xmlns="http://www.w3.org/2000/svg">
<path d="M12.5513 0.4375H17.0186V11.8479C17.0186 17.6034 13.8668 20.07 8.57726 20.07C3.09588 20.07 0.0537109 17.5485 0.0537109 11.8479V0.4375H4.53017V12.058C4.53017 14.954 6.03755 16.297 8.53158 16.297C11.0256 16.297 12.5513 14.954 12.5513 12.058V0.4375Z" fill="#231F20"/>
<path d="M31.8286 5.65937C31.408 4.94424 30.8005 4.3572 30.0714 3.96126C29.3422 3.56532 28.5191 3.37544 27.6902 3.412C25.4428 3.412 24.5384 4.32557 24.5384 5.53147C24.5384 6.57293 25.0591 7.3586 27.2791 7.90673L29.1976 8.35438C33.5553 9.33189 35.3093 11.1956 35.3093 14.1098C35.3093 17.7641 32.5138 19.9932 27.5257 19.9932C24.2917 19.9932 21.414 19.1436 19.7422 16.2932L22.6747 14.1281C23.1507 14.989 23.8561 15.7009 24.7125 16.1848C25.5689 16.6686 26.5428 16.9054 27.5257 16.8688C29.9376 16.8688 31.0886 16.1014 31.0886 14.594C31.0886 13.4977 30.4583 12.8126 28.2383 12.2918L26.3472 11.8442C22.0718 10.8575 20.4548 8.66499 20.4548 5.84208C20.4548 2.56239 23.1132 0.0683594 27.6628 0.0683594C30.979 0.0683594 33.4456 1.0276 34.8982 3.65866L31.8286 5.65937Z" fill="#231F20"/>
<path d="M53.1497 0.4375V4.21965H47.2663V19.6132H42.7899V4.21965H36.9248V0.4375H53.1497Z" fill="#231F20"/>
<path d="M70.4997 0.136719C76.1181 0.136719 78.9137 2.92309 78.9137 10.0215C78.9137 17.1199 75.9811 19.9154 70.4997 19.9154C65.0184 19.9154 62.1406 17.0925 62.1406 10.0215C62.1406 2.95049 65.0458 0.136719 70.4997 0.136719ZM70.4997 18.5998C74.83 18.5998 77.3241 16.5535 77.3241 10.0032C77.3241 3.45295 74.83 1.44311 70.4997 1.44311C66.1694 1.44311 63.712 3.45295 63.712 10.0215C63.712 16.59 66.1968 18.5998 70.4997 18.5998Z" fill="#231F20"/>
<path d="M83.7363 6.4113H85.0793L85.2437 9.3347C85.6071 8.36422 86.2648 7.53161 87.1248 6.95338C87.9848 6.37514 89.004 6.0802 90.0399 6.10982C90.5519 6.07641 91.0655 6.14458 91.5511 6.31041C92.0367 6.47624 92.4847 6.73645 92.8693 7.07608C93.2539 7.41571 93.5676 7.82804 93.7923 8.28936C94.0169 8.75067 94.1481 9.25186 94.1784 9.76408C94.4891 8.66798 95.1625 7.70972 96.0885 7.04594C97.0145 6.38217 98.1382 6.05215 99.276 6.10982C102.181 6.10982 103.634 7.79992 103.634 11.1984V19.6123H102.081V11.6095C102.081 8.52163 100.847 7.41622 98.8193 7.41622C96.243 7.41622 94.5712 9.31643 94.4342 12.5504V19.6123H92.9451V11.6734C92.9451 8.54904 91.6569 7.41622 89.6014 7.41622C87.08 7.41622 85.463 9.31643 85.2985 12.6509V19.6123H83.7363V6.4113Z" fill="#231F20"/>
<path d="M110.158 6.41002L110.35 9.39737C110.786 8.36535 111.532 7.49437 112.484 6.90509C113.437 6.31582 114.549 6.03745 115.667 6.10855C118.874 6.10855 120.518 7.79864 120.518 11.261V19.611H118.983V11.6356C118.983 8.54776 117.558 7.41494 115.201 7.41494C112.269 7.41494 110.542 9.507 110.35 12.7593V19.611H108.815V6.41002H110.158Z" fill="#231F20"/>
<path d="M126.547 1.39783C126.704 1.37945 126.863 1.39635 127.013 1.44729C127.162 1.49823 127.298 1.58192 127.411 1.69225C127.524 1.80258 127.611 1.93676 127.665 2.08498C127.72 2.2332 127.741 2.3917 127.726 2.54892C127.726 2.86148 127.602 3.16123 127.381 3.38224C127.16 3.60325 126.86 3.72742 126.547 3.72742C126.235 3.72742 125.935 3.60325 125.714 3.38224C125.493 3.16123 125.369 2.86148 125.369 2.54892C125.354 2.3917 125.375 2.2332 125.429 2.08498C125.484 1.93676 125.571 1.80258 125.684 1.69225C125.796 1.58192 125.933 1.49823 126.082 1.44729C126.232 1.39635 126.391 1.37945 126.547 1.39783ZM127.315 6.41329V19.6143H125.78V6.41329H127.315Z" fill="#231F20"/>
<path d="M136.064 1.52344V2.22688H133.78V7.9732H132.995V2.22688H130.692V1.52344H136.064ZM136.877 1.52344H137.791L140.267 7.11445L142.788 1.52344H143.702V7.9732H142.916V2.88465L140.632 7.9732H139.956L137.654 2.9486V7.9732H136.868L136.877 1.52344Z" fill="#231F20"/>
</svg>
