<svg width="31" height="27" viewBox="0 0 31 27" fill="none" xmlns="http://www.w3.org/2000/svg">
    <rect x=".66" y=".289" width="30" height="26" rx="2" fill="#FFF4E7"/>
    <path fill-rule="evenodd" clip-rule="evenodd" d="M7.943 6.227a.75.75 0 0 0-.75.75v9.119c0 .414.336.75.75.75h.863a2.504 2.504 0 1 0 4.589 0h4.53a2.504 2.504 0 1 0 4.589 0h.862a.75.75 0 0 0 .75-.75v-3.508a.75.75 0 0 0-.22-.53l-2.104-2.105a.75.75 0 0 0-.53-.22h-2.056V6.978a.75.75 0 0 0-.75-.75H7.943zm3.157 9.119h6.615V7.727H8.694v7.619H11.1zm-1.004 2.503c0-.547.438-.992.983-1.003h.042a1.004 1.004 0 1 1-1.025 1.003zm9.12-2.504v-4.111h1.745l1.665 1.665v2.447h-3.41zm0 2.504a1.004 1.004 0 1 1 2.007 0 1.004 1.004 0 0 1-2.008 0z" fill="#FF9C2C"/>
</svg>
