<svg width="31" height="27" viewBox="0 0 31 27" fill="none" xmlns="http://www.w3.org/2000/svg">
    <rect x=".66" y=".289" width="30" height="26" rx="2" fill="#EFEEFF"/>
    <path d="m22.547 19.156-.118-.082-.001.005a2.26 2.26 0 0 0-2.416.077c-.261.18-.57.248-.87.21l1.777-5.412v-.002a.49.49 0 0 0-.317-.618H20.6l-.693-.218v-3.55a.488.488 0 0 0-.489-.489h-2.36v-2.4a.49.49 0 0 0-.49-.488H14.75a.488.488 0 0 0-.489.489v2.399h-2.36a.488.488 0 0 0-.489.489v3.55l-.693.218h-.003a.49.49 0 0 0-.316.618v.002l1.77 5.393a.914.914 0 0 1-.85-.123 2.13 2.13 0 0 0-2.573.035.49.49 0 0 0 .603.769 1.148 1.148 0 0 1 1.389-.018 1.882 1.882 0 0 0 2.232.012 1.231 1.231 0 0 1 1.464.012c.52.414 1.438.532 2.145-.005a1.28 1.28 0 0 1 1.48-.046 2.233 2.233 0 0 0 2.506-.02 1.271 1.271 0 0 1 1.43 0l.057-.082-.057.082a.487.487 0 0 0 .68-.129.492.492 0 0 0-.128-.678zm-6.56.094-.013.01a.805.805 0 0 1-.952-.008 2.2 2.2 0 0 0-1.969-.347l-.526-1.606h.352a.488.488 0 1 0 0-.977h-.674l-.19-.577h1.641a.488.488 0 1 0 0-.977h-1.961l-.213-.645 4.178-1.311 4.177 1.308-1.595 4.854a2.255 2.255 0 0 0-2.255.276zM15.24 7.169h.841v1.91h-.841V7.17zm-2.85 2.885h6.54v2.757l-3.123-.976a.47.47 0 0 0-.293 0l-3.123.979v-2.76z" fill="#5643FC" stroke="#5643FC" stroke-width=".2"/>
</svg>
