<svg width="31" height="27" viewBox="0 0 31 27" fill="none" xmlns="http://www.w3.org/2000/svg">
    <rect x=".66" y=".289" width="30" height="26" rx="2" fill="#EEFBFE"/>
    <path fill-rule="evenodd" clip-rule="evenodd" d="M15.66 6.314c-.321 0-.636.085-.914.245h-.001l-4.477 2.559-.003.001a1.83 1.83 0 0 0-.577.526.55.55 0 0 0-.143.237 1.83 1.83 0 0 0-.194.82v5.12a1.83 1.83 0 0 0 .914 1.583l.003.001 4.477 2.559c.199.114.416.19.64.224a.548.548 0 0 0 .55 0c.224-.034.44-.11.638-.224h.002l4.477-2.559h.002a1.83 1.83 0 0 0 .915-1.584v-5.12a1.83 1.83 0 0 0-.197-.823.547.547 0 0 0-.14-.232 1.83 1.83 0 0 0-.578-.528l-.002-.001-4.477-2.558-.002-.001a1.83 1.83 0 0 0-.913-.245zm4.844 10.138-4.294 2.454v-5.32l4.659-2.695v4.93a.73.73 0 0 1-.364.63l-.001.001zm-5.394 2.454v-5.32l-4.66-2.694v4.93a.73.73 0 0 0 .365.63l4.295 2.454zm5.185-8.954-4.268-2.439h-.002a.73.73 0 0 0-.73 0h-.002l-1.379.788 4.52 2.729 1.861-1.078zm-7.474-1.026-1.797 1.027 4.635 2.681 1.687-.976-4.525-2.732z" fill="#36C8EA"/>
</svg>
